<?xml version="1.0" standalone="no"?>
<!DOCTYPE svg PUBLIC "-//W3C//DTD SVG 20010904//EN"
 "http://www.w3.org/TR/2001/REC-SVG-20010904/DTD/svg10.dtd">
<svg version="1.0" xmlns="http://www.w3.org/2000/svg"
 width="200.000000pt" height="200.000000pt" viewBox="0 0 200.000000 200.000000"
 preserveAspectRatio="xMidYMid meet">

<g transform="translate(0.000000,200.000000) scale(0.100000,-0.100000)"
fill="#000000" stroke="none">
<path d="M0 1000 l0 -1000 1000 0 1000 0 0 1000 0 1000 -1000 0 -1000 0 0
-1000z m905 310 c21 -18 21 -143 -1 -164 -18 -18 -95 -22 -125 -6 -16 9 -19
22 -19 89 0 71 2 79 23 89 27 14 101 9 122 -8z m-385 -10 c0 -16 -7 -20 -34
-20 -44 0 -56 -17 -19 -25 47 -10 58 -21 61 -58 4 -47 -24 -67 -95 -67 -50 0
-53 1 -53 25 0 22 4 25 39 25 49 0 62 15 19 24 -44 9 -58 23 -58 60 0 45 16
56 82 56 51 0 58 -2 58 -20z m100 -10 c0 -23 4 -30 20 -30 16 0 20 7 20 30 0
27 3 30 30 30 l30 0 0 -96 0 -95 -27 3 c-23 2 -29 8 -31 36 -2 23 -8 32 -22
32 -14 0 -20 -9 -22 -32 -2 -28 -8 -34 -30 -36 l-28 -3 0 95 0 96 30 0 c27 0
30 -3 30 -30z m480 11 c14 -27 13 -74 -2 -94 -7 -9 -29 -17 -48 -19 -30 -3
-35 -7 -38 -30 -3 -22 -9 -28 -28 -28 -24 0 -24 1 -24 95 l0 95 65 0 c53 0 66
-3 75 -19z m160 -6 c0 -16 -6 -25 -15 -25 -11 0 -15 -12 -15 -45 0 -33 4 -45
15 -45 9 0 15 -9 15 -25 0 -25 -1 -26 -62 -23 -55 3 -63 6 -66 24 -2 15 3 23
17 27 30 7 30 82 1 90 -12 3 -20 14 -20 26 0 19 6 21 65 21 63 0 65 -1 65 -25z
m170 5 c0 -16 -7 -20 -35 -20 -28 0 -35 -4 -35 -20 0 -15 7 -20 25 -20 18 0
25 -5 25 -20 0 -15 -7 -20 -24 -20 -21 0 -25 -6 -28 -32 -2 -28 -8 -34 -30
-36 l-28 -3 0 95 0 96 65 0 c58 0 65 -2 65 -20z m80 -3 c0 -13 7 -32 15 -43
13 -16 16 -17 25 -4 5 8 10 27 10 43 0 23 4 27 30 27 28 0 30 -3 30 -37 0 -23
-9 -48 -24 -68 -13 -17 -26 -42 -28 -56 -2 -18 -10 -25 -30 -27 -23 -3 -28 1
-28 18 0 12 -11 36 -25 54 -17 23 -25 46 -25 74 0 38 2 42 25 42 19 0 25 -5
25 -23z m-494 -219 c-3 -7 -7 -25 -10 -40 -6 -26 -4 -28 28 -28 l35 0 -42 -70
c-44 -73 -55 -77 -38 -15 l10 37 -35 -7 -36 -6 39 70 c21 39 41 71 45 71 4 0
6 -6 4 -12z m-304 -85 c-9 -3 -10 -9 -3 -17 8 -9 6 -13 -4 -13 -8 0 -15 9 -15
19 0 11 7 18 18 17 11 0 12 -2 4 -6z m86 -15 c-10 -20 -13 -21 -16 -5 -2 9
-11 17 -20 16 -11 0 -12 -2 -4 -6 18 -7 15 -23 -6 -23 -11 0 -18 8 -19 20 -2
17 4 20 38 20 38 0 39 -1 27 -22z m425 2 c4 -16 0 -20 -21 -20 -24 1 -25 2 -8
11 15 9 16 13 5 20 -11 7 -11 9 2 9 9 0 19 -9 22 -20z m55 4 c6 -10 14 -14 22
-9 9 6 9 9 -1 16 -11 7 -10 9 3 9 10 0 16 -7 15 -19 -2 -28 -77 -28 -77 0 0
23 26 25 38 3z m90 -9 c0 -19 -6 -25 -22 -25 -12 0 -16 3 -10 8 6 4 10 15 8
25 -1 9 4 17 11 17 7 0 13 -11 13 -25z"/>
<path d="M827 1274 c-4 -4 -7 -27 -7 -51 0 -37 3 -43 21 -43 18 0 20 5 17 47
-3 44 -15 62 -31 47z"/>
<path d="M1013 1264 c-8 -21 13 -42 28 -27 13 13 5 43 -11 43 -6 0 -13 -7 -17
-16z"/>
</g>
</svg>
